<svg xmlns="http://www.w3.org/2000/svg" data-name="Stop button" viewBox="0 0 52 65" x="0px" y="0px"><title>stop</title><path d="M112,6a26,26,0,1,0,26,26A26,26,0,0,0,112,6Zm0,48a22,22,0,1,1,22-22A22,22,0,0,1,112,54Zm10-14.5a2.5,2.5,0,0,1-2.5,2.5h-15a2.5,2.5,0,0,1-2.5-2.5v-15a2.5,2.5,0,0,1,2.5-2.5h15a2.5,2.5,0,0,1,2.5,2.5v15Z" transform="translate(-86 -6)"/><text x="0" y="67" fill="#000000" font-size="5px" font-weight="bold" font-family="'Helvetica Neue', Helvetica, Arial-Unicode, Arial, Sans-serif">Created by Ismael Ruiz</text><text x="0" y="72" fill="#000000" font-size="5px" font-weight="bold" font-family="'Helvetica Neue', Helvetica, Arial-Unicode, Arial, Sans-serif">from the Noun Project</text></svg>