<svg xmlns:dc="http://purl.org/dc/elements/1.1/" xmlns:cc="http://creativecommons.org/ns#" xmlns:rdf="http://www.w3.org/1999/02/22-rdf-syntax-ns#" xmlns:svg="http://www.w3.org/2000/svg" xmlns="http://www.w3.org/2000/svg" version="1.1" viewBox="0 0 100 125" xml:space="preserve" x="0px" y="0px"><path d="m 76.625,5 c -5.178075,0.252962 -9.917301,3.0779873 -12.125,7.8125 -1.849686,3.966448 -1.52528,8.447994 0.46875,12.21875 l -41.6875,41.6875 C 16.919154,65.713465 10.599878,68.634485 7.9375,74.34375 5.7294382,79.079198 6.6138741,84.495521 9.75,88.625 l 4.40625,-9.46875 c 0.666911,-1.430196 2.350951,-2.041876 3.78125,-1.375 l 8.5,3.9375 c 1.430074,0.666963 2.041911,2.351089 1.375,3.78125 L 23.375,95 c 5.177867,-0.252979 9.917301,-3.07797 12.125,-7.8125 1.849478,-3.966465 1.525315,-8.447994 -0.46875,-12.21875 14.927614,-14.880666 28.152016,-28.210499 41.6875,-41.6875 6.362097,1.005406 12.681562,-1.915717 15.34375,-7.625 C 94.27077,20.920872 93.385953,15.504444 90.25,11.375 l -4.40625,9.46875 c -0.666877,1.430126 -2.351158,2.041894 -3.78125,1.375 l -8.5,-3.9375 C 72.132218,17.614357 71.520589,15.93016 72.1875,14.5 L 76.625,5 z M 17.09375,6.4375 C 14.444308,6.4375 11.780156,7.4698619 9.75,9.5 5.6897065,13.56031 5.6897758,20.095956 9.75,24.15625 18.430855,32.828514 27.425001,41.83177 36.09375,50.5 L 50.75,35.84375 C 41.708796,26.794181 32.539635,17.629419 24.40625,9.5 22.37613,7.4698792 19.743192,6.4375 17.09375,6.4375 z M 58.875,54.5 c -1.541376,1.543576 -3.083589,3.112692 -4.625,4.65625 l 15.125,15.0625 c 2.720774,2.714177 6.40625,11.6875 6.40625,11.6875 L 88.75,93.5625 C 90.350534,91.961932 91.654358,90.626892 93.28125,89 l -7.625,-12.96875 c 0,0 -8.973324,-3.685476 -11.6875,-6.40625 L 58.875,54.5 z" style="" fill="#000000" fill-opacity="1" fill-rule="evenodd" stroke-width="0.50099999" stroke-linejoin="bevel" overflow="visible"/><text x="0" y="115" fill="#000000" font-size="5px" font-weight="bold" font-family="'Helvetica Neue', Helvetica, Arial-Unicode, Arial, Sans-serif">Created by ImageCatalog</text><text x="0" y="120" fill="#000000" font-size="5px" font-weight="bold" font-family="'Helvetica Neue', Helvetica, Arial-Unicode, Arial, Sans-serif">from the Noun Project</text></svg>