<svg xmlns="http://www.w3.org/2000/svg" xmlns:xlink="http://www.w3.org/1999/xlink" version="1.1" x="0px" y="0px" viewBox="0 0 100 125" style="enable-background:new 0 0 100 100;" xml:space="preserve"><g><path d="M50,14c-19.9,0-36,16.1-36,36s16.1,36,36,36s36-16.1,36-36S69.9,14,50,14z M50,80c-16.5,0-30-13.5-30-30s13.5-30,30-30   s30,13.5,30,30S66.5,80,50,80z"/><path d="M42,34c-1.7,0-3,1.3-3,3v26c0,1.7,1.3,3,3,3s3-1.3,3-3V37C45,35.3,43.7,34,42,34z"/><path d="M58,34c-1.7,0-3,1.3-3,3v26c0,1.7,1.3,3,3,3s3-1.3,3-3V37C61,35.3,59.7,34,58,34z"/></g><text x="0" y="115" fill="#000000" font-size="5px" font-weight="bold" font-family="'Helvetica Neue', Helvetica, Arial-Unicode, Arial, Sans-serif">Created by Shastry</text><text x="0" y="120" fill="#000000" font-size="5px" font-weight="bold" font-family="'Helvetica Neue', Helvetica, Arial-Unicode, Arial, Sans-serif">from the Noun Project</text></svg>