<?xml version="1.0" encoding="UTF-8" standalone="no"?>
<svg
   xmlns:dc="http://purl.org/dc/elements/1.1/"
   xmlns:cc="http://creativecommons.org/ns#"
   xmlns:rdf="http://www.w3.org/1999/02/22-rdf-syntax-ns#"
   xmlns:svg="http://www.w3.org/2000/svg"
   xmlns="http://www.w3.org/2000/svg"
   xmlns:sodipodi="http://sodipodi.sourceforge.net/DTD/sodipodi-0.dtd"
   xmlns:inkscape="http://www.inkscape.org/namespaces/inkscape"
   version="1.1"
   x="0px"
   y="0px"
   viewBox="0 0 72 72"
   xml:space="preserve"
   id="svg14"
   sodipodi:docname="PauseSVG.svg"
   width="72"
   height="72"
   inkscape:version="0.92.1 r15371"><metadata
     id="metadata20"><rdf:RDF><cc:Work
         rdf:about=""><dc:format>image/svg+xml</dc:format><dc:type
           rdf:resource="http://purl.org/dc/dcmitype/StillImage" /><dc:title></dc:title></cc:Work></rdf:RDF></metadata><defs
     id="defs18" /><sodipodi:namedview
     pagecolor="#ffffff"
     bordercolor="#666666"
     borderopacity="1"
     objecttolerance="10"
     gridtolerance="10"
     guidetolerance="10"
     inkscape:pageopacity="0"
     inkscape:pageshadow="2"
     inkscape:window-width="1920"
     inkscape:window-height="1017"
     id="namedview16"
     showgrid="false"
     fit-margin-top="0"
     fit-margin-left="0"
     fit-margin-right="0"
     fit-margin-bottom="0"
     inkscape:zoom="5.3400704"
     inkscape:cx="48.796605"
     inkscape:cy="46.781766"
     inkscape:window-x="-8"
     inkscape:window-y="-8"
     inkscape:window-maximized="1"
     inkscape:current-layer="layer2" /><g
     inkscape:groupmode="layer"
     id="layer1"
     inkscape:label="Background"><circle
       style="fill:#00ffff;fill-opacity:1;stroke:none;stroke-width:18.89763832;stroke-miterlimit:4;stroke-dasharray:none;stroke-opacity:1"
       id="path4501"
       cx="36.016949"
       cy="35.983051"
       r="35.487289" /></g><g
     inkscape:groupmode="layer"
     id="layer2"
     inkscape:label="Foreground"><g
       style=""
       id="g8"
       transform="translate(-14,-14)"><path
         d="M 50,14 C 30.1,14 14,30.1 14,50 14,69.9 30.1,86 50,86 69.9,86 86,69.9 86,50 86,30.1 69.9,14 50,14 Z m 0,66 C 33.5,80 20,66.5 20,50 20,33.5 33.5,20 50,20 66.5,20 80,33.5 80,50 80,66.5 66.5,80 50,80 Z"
         id="path2"
         inkscape:connector-curvature="0" /><path
         d="m 42,34 c -1.7,0 -3,1.3 -3,3 v 26 c 0,1.7 1.3,3 3,3 1.7,0 3,-1.3 3,-3 V 37 c 0,-1.7 -1.3,-3 -3,-3 z"
         id="path4"
         inkscape:connector-curvature="0" /><path
         d="m 58,34 c -1.7,0 -3,1.3 -3,3 v 26 c 0,1.7 1.3,3 3,3 1.7,0 3,-1.3 3,-3 V 37 c 0,-1.7 -1.3,-3 -3,-3 z"
         id="path6"
         inkscape:connector-curvature="0" /></g></g></svg>